<svg width="21" height="27" viewBox="0 0 21 27" fill="none" xmlns="http://www.w3.org/2000/svg">
<path d="M3.74314 13.1043V26.3089H7.05379C12.8092 26.3089 17.3991 24.1643 17.3991 19.9133C17.3991 15.6628 12.8092 13.1043 7.05379 13.1043H3.74314ZM3.74314 12.6154H7.05379C12.8092 12.6154 16.2705 10.8472 16.2705 6.97253C16.2705 3.09786 12.8092 0.95331 7.05379 0.95331H3.74314V12.6154ZM0.470551 26.7979V0.464352H7.12885C14.8407 0.464352 19.4681 1.74358 19.4681 6.48358C19.4681 10.2076 16.5713 12.164 11.5305 12.8411C16.9477 13.4432 20.5966 15.4371 20.5966 19.9133C20.5966 25.0297 14.8407 26.7979 7.12885 26.7979H0.470551Z" fill="#AC9C8D"/>
</svg>
