<svg width="85" height="27" viewBox="0 0 85 27" fill="none" xmlns="http://www.w3.org/2000/svg">
<path d="M3.74314 13.1043V26.3089H7.05379C12.8092 26.3089 17.3991 24.1643 17.3991 19.9133C17.3991 15.6628 12.8092 13.1043 7.05379 13.1043H3.74314ZM3.74314 12.6154H7.05379C12.8092 12.6154 16.2705 10.8472 16.2705 6.97253C16.2705 3.09786 12.8092 0.95331 7.05379 0.95331H3.74314V12.6154ZM0.470551 26.7979V0.464352H7.12885C14.8407 0.464352 19.4681 1.74358 19.4681 6.48358C19.4681 10.2076 16.5713 12.164 11.5305 12.8411C16.9477 13.4432 20.5966 15.4371 20.5966 19.9133C20.5966 25.0297 14.8407 26.7979 7.12885 26.7979H0.470551Z" fill="#AC9C8D"/>
<path d="M84.5294 26.5374H81.3319V21.9856C80.0902 24.2803 77.758 26.9138 74.1466 26.9138C69.7449 26.9138 67.9016 23.8289 67.9016 20.8946V7.72758H71.0991V20.1424C71.0991 23.4525 71.8143 26.5374 74.5604 26.5374C77.8706 26.5374 80.1277 23.415 81.3319 21.346V7.72758H84.5294V26.5374Z" fill="#AC9C8D"/>
<path d="M32.8618 16.3496C34.9131 16.3496 37.2404 16.4279 37.2404 13.9826C37.2404 12.6808 37.2796 6.88195 32.2302 6.88195C27.1809 6.88195 26.2346 12.6808 26.2346 16.7437C26.2346 17.2964 26.2346 17.9269 26.3134 18.5194C27.8516 16.5861 30.6921 16.3496 32.8618 16.3496ZM22.7631 16.7437C22.7631 10.5899 27.0629 6.48735 32.2302 6.48735C37.753 6.48735 40.5146 9.95885 40.5146 13.1934C40.5146 16.6649 36.1751 16.7437 32.9406 16.7437C30.6921 16.7437 27.9701 16.8622 26.3922 18.9526C26.8656 22.6214 28.3647 26.6059 33.0591 26.6059C35.8599 26.6059 39.8043 25.4618 40.4358 22.4246H40.9092C40.0809 25.8559 36.3333 27 33.0591 27C26.6292 27 22.7631 22.898 22.7631 16.7437Z" fill="#AC9C8D"/>
<path d="M50.8434 17.4788H57.0127V16.3244H50.8434V17.4788Z" fill="#AC9C8D"/>
<path d="M64.9426 7.42119V8.68862H63.0999C58.74 8.68862 55.2197 12.2448 55.1967 16.6154C55.1903 17.6722 55.3843 18.6694 55.7419 19.5797C55.9065 20.0017 56.106 20.4006 56.3403 20.7764C56.3585 20.8112 56.3816 20.8461 56.3987 20.882C57.0566 22.0079 57.872 23.0062 59.0043 23.7107C59.0408 23.7321 59.0778 23.7546 59.1137 23.775C59.147 23.7959 59.1813 23.8158 59.215 23.8335C59.2226 23.8377 59.2306 23.8426 59.2386 23.8469C59.3464 23.908 59.4552 23.9664 59.5657 24.0211C59.6472 24.0635 59.7297 24.1037 59.8134 24.1423C59.9099 24.1884 60.0069 24.2313 60.1045 24.2731C60.1388 24.2881 60.1737 24.3026 60.208 24.317C60.2546 24.3363 60.3013 24.3557 60.3479 24.3733C60.3822 24.3862 60.4155 24.3996 60.4487 24.4119C60.5618 24.4559 60.676 24.4972 60.7913 24.5369L57.086 23.5514C57.0212 23.4984 56.9622 23.4464 56.9038 23.3933C55.1318 21.7618 53.999 19.4436 53.9341 16.8561C53.9287 16.7747 53.9287 16.698 53.9287 16.6154C53.9287 16.5393 53.9287 16.4573 53.9341 16.3811C53.9405 15.9292 53.9872 15.4772 54.0638 15.0435C54.8085 10.7184 58.5765 7.42119 63.0999 7.42119H64.9426Z" fill="#AC9C8D"/>
<path d="M44.7702 25.8179H42.9275V24.5504H44.7702C49.1301 24.5504 52.674 20.9889 52.674 16.6172C52.674 15.9953 52.6037 15.3911 52.4686 14.8158V14.8099C52.3046 14.1118 52.0521 13.4545 51.7175 12.8385C51.7116 12.8267 51.7057 12.8149 51.6998 12.809C51.6945 12.7972 51.6886 12.7854 51.6768 12.7736C50.0276 9.49943 46.5073 8.01486 42.9275 7.82132V7.7216C45.5567 7.46372 48.3259 8.02666 50.4973 9.61095C51.2779 10.1331 51.8998 10.8022 52.4161 11.5534C52.504 11.6826 52.5861 11.8172 52.6681 11.9464C53.4428 13.2492 53.9007 14.7691 53.9355 16.3824C53.9414 16.4585 53.9414 16.5411 53.9414 16.6172C53.9414 16.6992 53.9414 16.7754 53.9355 16.8579C53.9237 17.4155 53.8594 17.9608 53.7479 18.4889V18.4948C52.8852 22.6729 49.1885 25.8179 44.7702 25.8179Z" fill="#AC9C8D"/>
<path d="M66.9155 25.534C66.2641 25.5807 65.6009 25.6219 64.9441 25.6391C62.7325 25.7099 60.4963 25.5512 58.4836 24.4837C57.9738 24.2135 57.51 23.9025 57.0875 23.5503C57.0232 23.4972 56.9637 23.4452 56.9052 23.3921C55.4266 22.0893 54.4878 20.341 53.7485 18.4924V18.487C53.2675 17.2657 52.8687 16.0106 52.4698 14.8134V14.808C52.3052 14.3148 52.1347 13.8457 51.9647 13.3819C51.8886 13.1942 51.8066 13.012 51.7186 12.8356C51.7122 12.8243 51.7063 12.8125 51.7009 12.8072C51.6945 12.7943 51.6892 12.783 51.6774 12.7712C50.0287 9.49704 46.5079 8.01301 42.9287 7.81893C42.7056 7.80713 42.4885 7.79587 42.2708 7.79587C42.4885 7.76049 42.7056 7.73743 42.9287 7.7192C45.5573 7.46132 48.3265 8.0248 50.4979 9.60855C51.2785 10.1308 51.9004 10.7999 52.4167 11.551C52.5046 11.6802 52.5866 11.8153 52.6692 11.9434C53.2557 12.9069 53.69 13.9743 54.0653 15.0423C54.3114 15.7232 54.5291 16.4036 54.7462 17.055C55.0507 17.8887 55.3617 18.7508 55.7434 19.5786C55.9252 19.9893 56.1246 20.3882 56.3418 20.7752C56.36 20.8101 56.383 20.8449 56.4002 20.8809C57.058 22.0068 57.8735 23.005 59.0058 23.7095C59.0428 23.731 59.0793 23.7535 59.1152 23.7739C59.1495 23.7937 59.1828 23.8135 59.2171 23.8323C59.224 23.8371 59.2321 23.8414 59.2401 23.8457C59.3077 23.8838 59.3752 23.9202 59.446 23.9556C59.4857 23.9771 59.5259 23.9996 59.5672 24.02C59.6492 24.0623 59.7318 24.1031 59.8154 24.1417C59.8567 24.1604 59.898 24.1781 59.9392 24.1963C59.9939 24.2221 60.0497 24.2483 60.1065 24.2719C60.1403 24.2869 60.1757 24.3014 60.2095 24.3159C60.2572 24.3357 60.3038 24.3545 60.3499 24.3722C60.3842 24.3851 60.4175 24.3985 60.4502 24.4108C60.5494 24.4478 60.648 24.4837 60.7488 24.5186C60.7719 24.5245 60.7955 24.5357 60.8191 24.5422L60.8276 24.5448C60.8287 24.5459 60.8298 24.5464 60.8314 24.5486C60.8351 24.5491 60.8378 24.5502 60.841 24.5513C60.966 24.5909 61.093 24.6312 61.2185 24.6714C61.2453 24.6805 61.2716 24.6885 61.2984 24.696C61.3595 24.7148 61.4217 24.7319 61.4828 24.748H61.4844C61.6066 24.7829 61.7235 24.8118 61.8458 24.8478H61.8699C61.9294 24.8622 61.9878 24.8762 62.0468 24.8901C62.1101 24.9051 62.1717 24.9185 62.2355 24.9319C62.3031 24.9475 62.3706 24.9619 62.4387 24.9759C62.4505 24.9759 62.4618 24.9823 62.4736 24.9823C62.4784 24.9834 62.4827 24.985 62.4864 24.985C62.4923 24.9871 62.4977 24.9871 62.5041 24.9871C62.5095 24.9877 62.5149 24.9877 62.5213 24.9877C62.5529 24.9952 62.584 25.0022 62.6167 25.0091C62.6301 25.0118 62.6435 25.0145 62.658 25.0172C62.6982 25.0257 62.7395 25.0338 62.7808 25.0397C62.791 25.0418 62.7995 25.0434 62.8087 25.045C62.8403 25.0499 62.8709 25.0542 62.9025 25.059C63.0633 25.0885 63.2247 25.1153 63.3866 25.1405C63.451 25.1507 63.5158 25.1603 63.5807 25.1694C63.645 25.178 63.7099 25.1882 63.7748 25.1962C64.1646 25.2499 64.5554 25.2944 64.9441 25.3346C65.6073 25.4048 66.2641 25.4632 66.9155 25.534Z" fill="#2C5D75"/>
</svg>
